<?xml version="1.0" encoding="UTF-8" standalone="no"?><svg xmlns="http://www.w3.org/2000/svg" xmlns:xlink="http://www.w3.org/1999/xlink" contentStyleType="text/css" height="1856px" preserveAspectRatio="none" style="width:568px;height:1856px;background:#FFFFFF;" version="1.1" viewBox="0 0 568 1856" width="568px" zoomAndPan="magnify"><defs/><g><!--MD5=[b640757cfa541fdcaf447e810587d780]
cluster AMS--><g id="cluster_AMS"><path d="M256.5,6 L451.5,6 A3.75,3.75 0 0 1 454,8.5 L461,28.4883 L558.86,28.4883 A2.5,2.5 0 0 1 561.36,30.9883 L561.36,1846.5 A2.5,2.5 0 0 1 558.86,1849 L256.5,1849 A2.5,2.5 0 0 1 254,1846.5 L254,8.5 A2.5,2.5 0 0 1 256.5,6 " fill="none" style="stroke:#000000;stroke-width:1.5;"/><line style="stroke:#000000;stroke-width:1.5;" x1="254" x2="461" y1="28.4883" y2="28.4883"/><text fill="#000000" font-family="sans-serif" font-size="14" font-weight="bold" lengthAdjust="spacing" textLength="194" x="258" y="21.5352">Asset Management System</text></g><g id="elem_UserManagement"><ellipse cx="407.6782" cy="60.0036" fill="#F1F1F1" rx="82.5182" ry="18.9036" style="stroke:#181818;stroke-width:0.5;"/><text fill="#000000" font-family="sans-serif" font-size="14" lengthAdjust="spacing" textLength="124" x="345.6782" y="63.2947">User Management</text></g><g id="elem_ReportsManagement"><ellipse cx="407.6775" cy="318.0015" fill="#F1F1F1" rx="92.1075" ry="20.8215" style="stroke:#181818;stroke-width:0.5;"/><text fill="#000000" font-family="sans-serif" font-size="14" lengthAdjust="spacing" textLength="146" x="334.6775" y="321.2925">Reports Management</text></g><g id="elem_DocumentManagement"><ellipse cx="407.6833" cy="396.0047" fill="#F1F1F1" rx="99.7233" ry="22.3447" style="stroke:#181818;stroke-width:0.5;"/><text fill="#000000" font-family="sans-serif" font-size="14" lengthAdjust="spacing" textLength="163" x="326.1833" y="399.2957">Document Management</text></g><g id="elem_ProcurementRequestApproval"><ellipse cx="407.684" cy="235.0028" fill="#F1F1F1" rx="122.814" ry="26.9628" style="stroke:#181818;stroke-width:0.5;"/><text fill="#000000" font-family="sans-serif" font-size="14" lengthAdjust="spacing" textLength="213" x="301.184" y="238.2938">Procurement Request Approval</text></g><g id="elem_ProcurementRequestManagement"><ellipse cx="407.6813" cy="1309.0043" fill="#F1F1F1" rx="135.5713" ry="29.5143" style="stroke:#181818;stroke-width:0.5;"/><text fill="#000000" font-family="sans-serif" font-size="14" lengthAdjust="spacing" textLength="240" x="287.6813" y="1312.2953">Procurement Request Management</text></g><g id="elem_Insertprocureditemsviaratecard"><ellipse cx="407.6813" cy="1402.9963" fill="#F1F1F1" rx="137.6813" ry="29.9363" style="stroke:#181818;stroke-width:0.5;"/><text fill="#000000" font-family="sans-serif" font-size="14" lengthAdjust="spacing" textLength="201" x="306.8964" y="1398.1167">Insert procured items via rate</text><text fill="#000000" font-family="sans-serif" font-size="14" lengthAdjust="spacing" textLength="30" x="392.3964" y="1414.605">card</text></g><g id="elem_AssetRelease"><ellipse cx="407.6792" cy="659.0038" fill="#F1F1F1" rx="69.8192" ry="16.3638" style="stroke:#181818;stroke-width:0.5;"/><text fill="#000000" font-family="sans-serif" font-size="14" lengthAdjust="spacing" textLength="93" x="359.2853" y="662.7773">Asset Release</text></g><g id="elem_AssetMaintenance"><ellipse cx="407.6751" cy="1578.997" fill="#F1F1F1" rx="84.2351" ry="19.247" style="stroke:#181818;stroke-width:0.5;"/><text fill="#000000" font-family="sans-serif" font-size="14" lengthAdjust="spacing" textLength="128" x="343.6751" y="1582.288">Asset Maintenance</text></g><g id="elem_AssetTracking"><ellipse cx="407.6804" cy="1649.9981" fill="#F1F1F1" rx="72.9404" ry="16.9881" style="stroke:#181818;stroke-width:0.5;"/><text fill="#000000" font-family="sans-serif" font-size="14" lengthAdjust="spacing" textLength="101" x="356.8741" y="1653.3731">Asset Tracking</text></g><g id="elem_GrantUserPermission"><ellipse cx="407.6777" cy="151.9955" fill="#F1F1F1" rx="94.7777" ry="21.3555" style="stroke:#181818;stroke-width:0.5;"/><text fill="#000000" font-family="sans-serif" font-size="14" lengthAdjust="spacing" textLength="152" x="331.6777" y="155.2866">Grant User Permission</text></g><g id="elem_AssetOwnershipManagement"><ellipse cx="407.6798" cy="911.004" fill="#F1F1F1" rx="120.4698" ry="26.494" style="stroke:#181818;stroke-width:0.5;"/><text fill="#000000" font-family="sans-serif" font-size="14" lengthAdjust="spacing" textLength="208" x="303.6798" y="914.295">Asset Ownership Management</text></g><g id="elem_InventoryNotification"><ellipse cx="407.6811" cy="1224.0002" fill="#F1F1F1" rx="92.5511" ry="20.9102" style="stroke:#181818;stroke-width:0.5;"/><text fill="#000000" font-family="sans-serif" font-size="14" lengthAdjust="spacing" textLength="147" x="334.1811" y="1227.2912">Inventory Notification</text></g><g id="elem_CheckAssetAvailability"><ellipse cx="407.6796" cy="569.0039" fill="#F1F1F1" rx="98.8196" ry="22.1639" style="stroke:#181818;stroke-width:0.5;"/><text fill="#000000" font-family="sans-serif" font-size="14" lengthAdjust="spacing" textLength="161" x="327.1796" y="572.2949">Check Asset Availability</text></g><g id="elem_CheckAssetsReleasedToEmployee"><ellipse cx="407.6812" cy="483.0042" fill="#F1F1F1" rx="134.6212" ry="29.3242" style="stroke:#181818;stroke-width:0.5;"/><text fill="#000000" font-family="sans-serif" font-size="14" lengthAdjust="spacing" textLength="238" x="288.6812" y="486.2953">Check assets released to employee</text></g><g id="elem_AssetTagHistory"><ellipse cx="407.6812" cy="1814.9982" fill="#F1F1F1" rx="80.3912" ry="18.4782" style="stroke:#181818;stroke-width:0.5;"/><text fill="#000000" font-family="sans-serif" font-size="14" lengthAdjust="spacing" textLength="119" x="348.1812" y="1818.2893">Asset Tag History</text></g><g id="elem_AssetTagEmployee"><ellipse cx="407.6803" cy="1740.0041" fill="#F1F1F1" rx="96.1203" ry="21.6241" style="stroke:#181818;stroke-width:0.5;"/><text fill="#000000" font-family="sans-serif" font-size="14" lengthAdjust="spacing" textLength="155" x="330.1803" y="1743.2951">Asset Tag to Employee</text></g><g id="elem_ValidAssetTransfer"><ellipse cx="407.6777" cy="811.0035" fill="#F1F1F1" rx="97.4677" ry="21.8935" style="stroke:#181818;stroke-width:0.5;"/><text fill="#000000" font-family="sans-serif" font-size="14" lengthAdjust="spacing" textLength="158" x="328.6777" y="814.2946">Validate Asset Transfer</text></g><g id="elem_CheckAssetCondition"><ellipse cx="407.6803" cy="732.0041" fill="#F1F1F1" rx="96.1203" ry="21.6241" style="stroke:#181818;stroke-width:0.5;"/><text fill="#000000" font-family="sans-serif" font-size="14" lengthAdjust="spacing" textLength="155" x="330.1803" y="735.2951">Check Asset Condition</text></g><g id="elem_AssetDisposal"><ellipse cx="407.6829" cy="988.9986" fill="#F1F1F1" rx="72.1429" ry="16.8286" style="stroke:#181818;stroke-width:0.5;"/><text fill="#000000" font-family="sans-serif" font-size="14" lengthAdjust="spacing" textLength="99" x="357.4929" y="992.4754">Asset Disposal</text></g><g id="elem_CheckLowInventory"><ellipse cx="407.6788" cy="1130.9998" fill="#F1F1F1" rx="89.8988" ry="20.3798" style="stroke:#181818;stroke-width:0.5;"/><text fill="#000000" font-family="sans-serif" font-size="14" lengthAdjust="spacing" textLength="141" x="337.1788" y="1134.2908">Check Low Inventory</text></g><g id="elem_CheckWarranty"><ellipse cx="407.6837" cy="1057.9967" fill="#F1F1F1" rx="75.3837" ry="17.4767" style="stroke:#181818;stroke-width:0.5;"/><text fill="#000000" font-family="sans-serif" font-size="14" lengthAdjust="spacing" textLength="107" x="354.1837" y="1061.2878">Check Warranty</text></g><g id="elem_RepairDetails"><ellipse cx="407.6834" cy="1487.9987" fill="#F1F1F1" rx="88.1434" ry="20.0287" style="stroke:#181818;stroke-width:0.5;"/><text fill="#000000" font-family="sans-serif" font-size="14" lengthAdjust="spacing" textLength="137" x="339.1834" y="1491.2897">CRUD Repair Details</text></g><!--MD5=[327d8b0cc9017ef0d2f4054fa6547e20]
entity Manager--><g id="elem_Manager"><ellipse cx="79.5" cy="247.26" fill="#F1F1F1" rx="8" ry="8" style="stroke:#181818;stroke-width:0.5;"/><path d="M79.5,255.26 L79.5,282.26 M66.5,263.26 L92.5,263.26 M79.5,282.26 L66.5,297.26 M79.5,282.26 L92.5,297.26 " fill="none" style="stroke:#181818;stroke-width:0.5;"/><text fill="#000000" font-family="sans-serif" font-size="14" lengthAdjust="spacing" textLength="60" x="49.5" y="312.2952">Manager</text></g><!--MD5=[2f00caed59a018b522c82c3377d7b6b4]
entity AssetAdministrator--><g id="elem_AssetAdministrator"><ellipse cx="79.5" cy="1092.26" fill="#F1F1F1" rx="8" ry="8" style="stroke:#181818;stroke-width:0.5;"/><path d="M79.5,1100.26 L79.5,1127.26 M66.5,1108.26 L92.5,1108.26 M79.5,1127.26 L66.5,1142.26 M79.5,1127.26 L92.5,1142.26 " fill="none" style="stroke:#181818;stroke-width:0.5;"/><text fill="#000000" font-family="sans-serif" font-size="14" lengthAdjust="spacing" textLength="136" x="11.5" y="1157.2952">Asset Administrator</text></g><!--MD5=[62429cfdc9d64f3d28125da3bcf5d357]
entity SystemAdministrator--><g id="elem_SystemAdministrator"><ellipse cx="79.5" cy="1738.26" fill="#F1F1F1" rx="8" ry="8" style="stroke:#181818;stroke-width:0.5;"/><path d="M79.5,1746.26 L79.5,1773.26 M66.5,1754.26 L92.5,1754.26 M79.5,1773.26 L66.5,1788.26 M79.5,1773.26 L92.5,1788.26 " fill="none" style="stroke:#181818;stroke-width:0.5;"/><text fill="#000000" font-family="sans-serif" font-size="14" lengthAdjust="spacing" textLength="147" x="6" y="1803.2952">System Administrator</text></g><!--MD5=[4613ba193d1627337d184cc57a1945b2]
link Manager to UserManagement--><g id="link_Manager_UserManagement"><path d="M109.87,239.03 C140.28,202.08 190.99,146.71 246,113 C274.76,95.38 310.06,82.9 340.23,74.5 " fill="none" id="Manager-to-UserManagement" style="stroke:#181818;stroke-width:1.0;"/><polygon fill="#181818" points="344.74,73.27,335.0054,71.7741,339.9155,74.5832,337.1065,79.4933,344.74,73.27" style="stroke:#181818;stroke-width:1.0;"/></g><!--MD5=[623f93f01b86a12665417a5087cdf0d5]
link GrantUserPermission to UserManagement--><g id="link_GrantUserPermission_UserManagement"><path d="M407.68,130.2 C407.68,116.74 407.68,99.43 407.68,85.36 " fill="none" id="GrantUserPermission-to-UserManagement" style="stroke:#181818;stroke-width:1.0;stroke-dasharray:7.0,7.0;"/><polygon fill="#181818" points="407.68,80.66,403.68,89.66,407.68,85.66,411.68,89.66,407.68,80.66" style="stroke:#181818;stroke-width:1.0;"/><text fill="#000000" font-family="sans-serif" font-size="13" lengthAdjust="spacing" textLength="50" x="371.18" y="109.8384">extends</text></g><!--MD5=[04c921fe63b21a07b48cb52566de5171]
link Manager to ReportsManagement--><g id="link_Manager_ReportsManagement"><path d="M109.73,280.67 C156.64,286.57 250.5,298.37 320.2,307.13 " fill="none" id="Manager-to-ReportsManagement" style="stroke:#181818;stroke-width:1.0;"/><polygon fill="#181818" points="324.94,307.73,316.5147,302.6296,319.9797,307.101,315.5083,310.5661,324.94,307.73" style="stroke:#181818;stroke-width:1.0;"/></g><!--MD5=[cb190bc639df4cffce1fbbbace71b759]
link Manager to DocumentManagement--><g id="link_Manager_DocumentManagement"><path d="M109.92,293.28 C142.43,310.73 196.71,338.3 246,356 C271.8,365.26 300.67,373.17 326.75,379.46 " fill="none" id="Manager-to-DocumentManagement" style="stroke:#181818;stroke-width:1.0;"/><polygon fill="#181818" points="331.49,380.59,323.662,374.6132,326.6261,379.4313,321.808,382.3954,331.49,380.59" style="stroke:#181818;stroke-width:1.0;"/></g><!--MD5=[15d25f07c617ed16dbee63e7d46e3e5a]
link Manager to ProcurementRequestApproval--><g id="link_Manager_ProcurementRequestApproval"><path d="M109.73,273.24 C151.09,267.91 228.95,257.89 294.57,249.44 " fill="none" id="Manager-to-ProcurementRequestApproval" style="stroke:#181818;stroke-width:1.0;"/><polygon fill="#181818" points="299.38,248.82,289.9483,245.9839,294.4197,249.449,290.9547,253.9204,299.38,248.82" style="stroke:#181818;stroke-width:1.0;"/></g><!--MD5=[0518c601e9fbf28865d115ef4d0a0a4b]
link AssetAdministrator to ProcurementRequestManagement--><g id="link_AssetAdministrator_ProcurementRequestManagement"><path d="M147.9,1113.5 C179.7,1113.46 215.51,1119.86 238,1144 C255.91,1163.23 229.54,1241.51 246,1262 C256.38,1274.91 270.1,1284.41 285.16,1291.36 " fill="none" id="AssetAdministrator-to-ProcurementRequestManagement" style="stroke:#181818;stroke-width:1.0;"/><polygon fill="#181818" points="289.38,1293.21,282.7295,1285.9456,284.7969,1291.2112,279.5314,1293.2785,289.38,1293.21" style="stroke:#181818;stroke-width:1.0;"/></g><!--MD5=[c6ea7ce0d533e9d9a0d3eb7bff9a5cb0]
link AssetAdministrator to Insertprocureditemsviaratecard--><g id="link_AssetAdministrator_Insertprocureditemsviaratecard"><path d="M147.66,1131.65 C180.42,1140.05 217.17,1155.73 238,1185 C249.03,1200.5 234.24,1341.05 246,1356 C255.91,1368.6 269.02,1377.96 283.48,1384.88 " fill="none" id="AssetAdministrator-to-Insertprocureditemsviaratecard" style="stroke:#181818;stroke-width:1.0;"/><polygon fill="#181818" points="287.92,1386.89,281.3628,1379.5413,283.3628,1384.8328,278.0713,1386.8329,287.92,1386.89" style="stroke:#181818;stroke-width:1.0;"/></g><!--MD5=[e051a1bec88599ae6aa6a9e2061ea244]
link AssetAdministrator to AssetRelease--><g id="link_AssetAdministrator_AssetRelease"><path d="M81.88,1083.35 C86.75,972.18 107.13,655.58 183,593 C201.86,577.45 217.21,580.15 238,593 C244.76,597.18 239.94,603.85 246,609 C271.98,631.08 307.68,643.42 338.82,650.31 " fill="none" id="AssetAdministrator-to-AssetRelease" style="stroke:#181818;stroke-width:1.0;"/><polygon fill="#181818" points="343.51,651.31,335.5433,645.5194,338.6202,650.2663,333.8733,653.3431,343.51,651.31" style="stroke:#181818;stroke-width:1.0;"/></g><!--MD5=[257c1eaaab28a3265bc3e5404305f45e]
link AssetRelease to CheckAssetAvailability--><g id="link_AssetRelease_CheckAssetAvailability"><path d="M407.68,642.49 C407.68,629.97 407.68,612.45 407.68,597.65 " fill="none" id="AssetRelease-to-CheckAssetAvailability" style="stroke:#181818;stroke-width:1.0;stroke-dasharray:7.0,7.0;"/><polygon fill="#181818" points="407.68,593.02,403.68,602.02,407.68,598.02,411.68,602.02,407.68,593.02" style="stroke:#181818;stroke-width:1.0;"/><text fill="#000000" font-family="sans-serif" font-size="13" lengthAdjust="spacing" textLength="53" x="369.68" y="621.9684">includes</text></g><!--MD5=[d4a93c24f57519b1b828f16e57af6a8a]
link AssetRelease to CheckAssetsReleasedToEmployee--><g id="link_AssetRelease_CheckAssetsReleasedToEmployee"><path d="M359.34,671.21 C315.11,679.17 251.32,681.93 215.86,643.5 C203.24,629.81 191.4,582.38 246,529 C258.17,517.1 273.19,508.23 289.13,501.64 " fill="none" id="AssetRelease-to-CheckAssetsReleasedToEmployee" style="stroke:#181818;stroke-width:1.0;stroke-dasharray:7.0,7.0;"/><polygon fill="#181818" points="293.63,499.86,283.7903,499.4363,288.9778,501.6922,286.7219,506.8798,293.63,499.86" style="stroke:#181818;stroke-width:1.0;"/><text fill="#000000" font-family="sans-serif" font-size="13" lengthAdjust="spacing" textLength="53" x="184" y="640.0684">includes</text></g><!--MD5=[b67428baa4cf2047a8488521b2038fcb]
link AssetAdministrator to AssetMaintenance--><g id="link_AssetAdministrator_AssetMaintenance"><path d="M85.46,1160.56 C97.75,1240.3 136.92,1424.32 246,1526 C268.67,1547.13 299.94,1559.85 328.88,1567.49 " fill="none" id="AssetAdministrator-to-AssetMaintenance" style="stroke:#181818;stroke-width:1.0;"/><polygon fill="#181818" points="333.54,1568.68,325.7999,1562.5897,328.6935,1567.4505,323.8327,1570.3441,333.54,1568.68" style="stroke:#181818;stroke-width:1.0;"/></g><!--MD5=[8a4ef2bce0a01b609c6f66d5d315eb43]
link AssetAdministrator to AssetTracking--><g id="link_AssetAdministrator_AssetTracking"><path d="M81.39,1160.61 C84.95,1276.51 102.23,1617.61 183,1685 C208.92,1706.62 300.73,1683.48 358.36,1665.91 " fill="none" id="AssetAdministrator-to-AssetTracking" style="stroke:#181818;stroke-width:1.0;"/><polygon fill="#181818" points="363.07,1664.45,353.2919,1663.2716,358.2908,1665.9194,355.643,1670.9183,363.07,1664.45" style="stroke:#181818;stroke-width:1.0;"/></g><!--MD5=[16a5134bff67552697d8ffb4a2f63338]
link AssetTagHistory to AssetTracking--><g id="link_AssetTagHistory_AssetTracking"><path d="M327.11,1813.48 C298.39,1809.04 267.79,1799.27 246,1779 C208.22,1743.86 182.49,1704.53 217.36,1666.5 C249.95,1630.97 306.88,1630.47 350.01,1636.67 " fill="none" id="AssetTagHistory-to-AssetTracking" style="stroke:#181818;stroke-width:1.0;stroke-dasharray:7.0,7.0;"/><polygon fill="#181818" points="354.78,1637.4,346.4894,1632.0834,349.8376,1636.6429,345.2781,1639.9912,354.78,1637.4" style="stroke:#181818;stroke-width:1.0;"/><text fill="#000000" font-family="sans-serif" font-size="13" lengthAdjust="spacing" textLength="50" x="185.5" y="1680.0684">extends</text></g><!--MD5=[472147d2c9803fdb0ba6469931a17f01]
link AssetTagEmployee to AssetTracking--><g id="link_AssetTagEmployee_AssetTracking"><path d="M407.68,1718.21 C407.68,1704.8 407.68,1687.6 407.68,1673.83 " fill="none" id="AssetTagEmployee-to-AssetTracking" style="stroke:#181818;stroke-width:1.0;stroke-dasharray:7.0,7.0;"/><polygon fill="#181818" points="407.68,1668.89,403.68,1677.89,407.68,1673.89,411.68,1677.89,407.68,1668.89" style="stroke:#181818;stroke-width:1.0;"/><text fill="#000000" font-family="sans-serif" font-size="13" lengthAdjust="spacing" textLength="50" x="371.18" y="1697.7484">extends</text></g><!--MD5=[5138e95de087c93902f1b37d40bcd734]
link AssetAdministrator to AssetOwnershipManagement--><g id="link_AssetAdministrator_AssetOwnershipManagement"><path d="M82.4,1083.39 C88.53,976.91 111.71,683.09 183,625 C201.95,609.56 220.41,608.03 238,625 C256,642.37 231.43,829.67 246,850 C260.42,870.12 282.37,883.61 305.46,892.65 " fill="none" id="AssetAdministrator-to-AssetOwnershipManagement" style="stroke:#181818;stroke-width:1.0;"/><polygon fill="#181818" points="309.93,894.32,302.9075,887.4146,305.2484,892.5644,300.0985,894.9052,309.93,894.32" style="stroke:#181818;stroke-width:1.0;"/></g><!--MD5=[8a9bc491e56878713c16e05f78da830c]
link AssetOwnershipManagement to ValidAssetTransfer--><g id="link_AssetOwnershipManagement_ValidAssetTransfer"><path d="M407.68,884.2 C407.68,870.35 407.68,853.46 407.68,839.39 " fill="none" id="AssetOwnershipManagement-to-ValidAssetTransfer" style="stroke:#181818;stroke-width:1.0;stroke-dasharray:7.0,7.0;"/><polygon fill="#181818" points="407.68,834.66,403.68,843.66,407.68,839.66,411.68,843.66,407.68,834.66" style="stroke:#181818;stroke-width:1.0;"/><text fill="#000000" font-family="sans-serif" font-size="13" lengthAdjust="spacing" textLength="53" x="369.68" y="863.7684">includes</text></g><!--MD5=[67ac70b28fccc159b260eabfc4ccb79c]
link AssetOwnershipManagement to CheckAssetCondition--><g id="link_AssetOwnershipManagement_CheckAssetCondition"><path d="M305.41,896.68 C251.7,883.5 199.98,858.5 215.86,811.5 C229.39,771.46 270.76,751.42 311.62,741.46 " fill="none" id="AssetOwnershipManagement-to-CheckAssetCondition" style="stroke:#181818;stroke-width:1.0;stroke-dasharray:7.0,7.0;"/><polygon fill="#181818" points="316.44,740.35,306.7694,738.4845,311.569,741.4785,308.575,746.278,316.44,740.35" style="stroke:#181818;stroke-width:1.0;"/><text fill="#000000" font-family="sans-serif" font-size="13" lengthAdjust="spacing" textLength="53" x="184" y="825.0684">includes</text></g><!--MD5=[12da16192913f72cb7081149da1a1556]
link AssetDisposal to CheckAssetCondition--><g id="link_AssetDisposal_CheckAssetCondition"><path d="M356.7,1001.3 C312.94,1008.49 251.66,1009.9 217.36,972.5 C207.5,961.75 148.13,878.86 246,772 C261.96,754.58 284.2,744.2 307.08,738.15 " fill="none" id="AssetDisposal-to-CheckAssetCondition" style="stroke:#181818;stroke-width:1.0;stroke-dasharray:7.0,7.0;"/><polygon fill="#181818" points="311.76,736.99,302.0621,735.272,306.9068,738.1926,303.9862,743.0372,311.76,736.99" style="stroke:#181818;stroke-width:1.0;"/><text fill="#000000" font-family="sans-serif" font-size="13" lengthAdjust="spacing" textLength="50" x="185.5" y="969.0684">extends</text></g><!--MD5=[455a7bb408c4956d11fbbaaa1281ebd4]
link AssetAdministrator to InventoryNotification--><g id="link_AssetAdministrator_InventoryNotification"><path d="M95.71,1083.49 C123.2,1019.06 183.37,901.36 238,954 C255.22,970.59 231.74,1149.81 246,1169 C263.09,1191.99 290.35,1205.45 317.6,1213.31 " fill="none" id="AssetAdministrator-to-InventoryNotification" style="stroke:#181818;stroke-width:1.0;"/><polygon fill="#181818" points="322.31,1214.6,314.6765,1208.3767,317.4855,1213.2868,312.5754,1216.0959,322.31,1214.6" style="stroke:#181818;stroke-width:1.0;"/></g><!--MD5=[541a9646dff113cec2921f41696fe79c]
link InventoryNotification to CheckLowInventory--><g id="link_InventoryNotification_CheckLowInventory"><path d="M407.68,1202.9 C407.68,1189.61 407.68,1172.32 407.68,1158.03 " fill="none" id="InventoryNotification-to-CheckLowInventory" style="stroke:#181818;stroke-width:1.0;stroke-dasharray:7.0,7.0;"/><polygon fill="#181818" points="407.68,1153.21,403.68,1162.21,407.68,1158.21,411.68,1162.21,407.68,1153.21" style="stroke:#181818;stroke-width:1.0;"/><text fill="#000000" font-family="sans-serif" font-size="13" lengthAdjust="spacing" textLength="53" x="369.68" y="1182.2984">includes</text></g><!--MD5=[b18ba38dbe9c13d4cfb52412afd85cc0]
link InventoryNotification to CheckWarranty--><g id="link_InventoryNotification_CheckWarranty"><path d="M335.65,1237.49 C294.36,1240.7 245.08,1236.01 215.86,1203.5 C191.01,1175.85 144.87,1184.62 246,1093 C267.57,1073.46 297.4,1063.91 325.56,1059.49 " fill="none" id="InventoryNotification-to-CheckWarranty" style="stroke:#181818;stroke-width:1.0;stroke-dasharray:7.0,7.0;"/><polygon fill="#181818" points="330.42,1058.79,320.9491,1056.0877,325.4691,1059.4891,322.0677,1064.0091,330.42,1058.79" style="stroke:#181818;stroke-width:1.0;"/><text fill="#000000" font-family="sans-serif" font-size="13" lengthAdjust="spacing" textLength="53" x="184" y="1200.0684">includes</text></g><!--MD5=[04f3a9515256ce16e014d4a3dff1aecd]
link AssetMaintenance to RepairDetails--><g id="link_AssetMaintenance_RepairDetails"><path d="M407.68,1559.25 C407.68,1546.2 407.68,1528.93 407.68,1514.66 " fill="none" id="AssetMaintenance-to-RepairDetails" style="stroke:#181818;stroke-width:1.0;stroke-dasharray:7.0,7.0;"/><polygon fill="#181818" points="407.68,1509.85,403.68,1518.85,407.68,1514.85,411.68,1518.85,407.68,1509.85" style="stroke:#181818;stroke-width:1.0;"/><text fill="#000000" font-family="sans-serif" font-size="13" lengthAdjust="spacing" textLength="53" x="369.68" y="1538.9584">includes</text></g><!--MD5=[b8512b94f5dc00267c13766b47e01623]
link SystemAdministrator to AssetMaintenance--><g id="link_SystemAdministrator_AssetMaintenance"><path d="M153.33,1749.59 C184.39,1737.96 218,1719.54 238,1691 C257.24,1663.55 223.76,1641.08 246,1616 C263.93,1595.77 290.5,1585.43 316.89,1580.44 " fill="none" id="SystemAdministrator-to-AssetMaintenance" style="stroke:#181818;stroke-width:1.0;"/><polygon fill="#181818" points="321.74,1579.6,312.1877,1577.2012,316.8139,1580.4567,313.5585,1585.0829,321.74,1579.6" style="stroke:#181818;stroke-width:1.0;"/></g><!--MD5=[ed843e4bbf8ce9d0df3986e7240705cb]
link SystemAdministrator to AssetTracking--><g id="link_SystemAdministrator_AssetTracking"><path d="M153.45,1786.89 C183.02,1790.05 215.45,1787.11 238,1767 C260.05,1747.33 227.15,1723.75 246,1701 C267.01,1675.65 300.59,1662.73 331.62,1656.21 " fill="none" id="SystemAdministrator-to-AssetTracking" style="stroke:#181818;stroke-width:1.0;"/><polygon fill="#181818" points="336.31,1655.29,326.704,1653.1166,331.4055,1656.2623,328.2597,1660.9638,336.31,1655.29" style="stroke:#181818;stroke-width:1.0;"/></g><!--MD5=[9380784e1402d1e517eac1d5efd38734]
@startuml

left to right direction
actor Manager
actor AssetAdministrator as "Asset Administrator"
actor SystemAdministrator as "System Administrator"

 package AMS as "Asset Management System" {
     usecase UserManagement as "User Management"
     usecase ReportsManagement as "Reports Management"
     usecase DocumentManagement as "Document Management"
     usecase ProcurementRequestApproval as "Procurement Request Approval"
     usecase ProcurementRequestManagement as "Procurement Request Management"
     usecase Insertprocureditemsviaratecard as "Insert procured items via rate
card"
     usecase AssetRelease as "Asset Release"
     usecase AssetMaintenance as "Asset Maintenance"
     usecase AssetTracking as "Asset Tracking"
     usecase GrantUserPermission as "Grant User Permission"
     usecase AssetOwnershipManagement as "Asset Ownership Management"
     usecase InventoryNotification as "Inventory Notification"
     usecase CheckAssetAvailability as "Check Asset Availability"
     usecase CheckAssetsReleasedToEmployee as "Check assets released to employee"
     usecase AssetTagHistory as "Asset Tag History"
     usecase AssetTagEmployee as "Asset Tag to Employee"
     usecase ValidAssetTransfer as "Validate Asset Transfer"
     usecase CheckAssetCondition as "Check Asset Condition"
     usecase AssetDisposal as "Asset Disposal"
     usecase CheckLowInventory as "Check Low Inventory"
     usecase CheckWarranty as "Check Warranty"
     usecase RepairDetails as "CRUD Repair Details"
 }

Manager - -> UserManagement
GrantUserPermission .> UserManagement :extends
Manager - -> ReportsManagement
Manager - -> DocumentManagement
Manager - -> ProcurementRequestApproval
AssetAdministrator - -> ProcurementRequestManagement
AssetAdministrator - -> Insertprocureditemsviaratecard
AssetAdministrator - -> AssetRelease
AssetRelease .> CheckAssetAvailability :includes
AssetRelease .> CheckAssetsReleasedToEmployee :includes
AssetAdministrator - -> AssetMaintenance
AssetAdministrator - -> AssetTracking
AssetTagHistory .> AssetTracking :extends
AssetTagEmployee .> AssetTracking :extends
AssetAdministrator - -> AssetOwnershipManagement
AssetOwnershipManagement .> ValidAssetTransfer :includes
AssetOwnershipManagement .> CheckAssetCondition :includes
AssetDisposal .> CheckAssetCondition :extends
AssetAdministrator - -> InventoryNotification
InventoryNotification .> CheckLowInventory :includes
InventoryNotification .> CheckWarranty :includes
AssetMaintenance .> RepairDetails :includes
SystemAdministrator -d-> AssetMaintenance
SystemAdministrator -d-> AssetTracking


@enduml

PlantUML version 1.2022.7(Mon Aug 22 22:31:30 IST 2022)
(GPL source distribution)
Java Runtime: OpenJDK Runtime Environment
JVM: OpenJDK 64-Bit Server VM
Default Encoding: UTF-8
Language: en
Country: GB
--></g></svg>